<svg xmlns="http://www.w3.org/2000/svg" viewBox="0 0 512 512" width="512" height="512" fill="currentColor" fill-rule="evenodd" role="img" aria-label="CoffeeSoft code coffee cup">
<path stroke="currentColor" stroke-width="8" stroke-linejoin="round" stroke-linecap="round" d="M 312.58 46.64 C 311.09 45.36 307.37 40.87 303.93 37.99 C 300.49 35.10 294.94 30.88 291.95 29.33 C 288.95 27.78 287.90 28.39 285.96 28.67 C 284.01 28.94 280.52 31.11 280.30 31.00 C 280.08 30.88 282.79 28.50 284.62 28.00 C 286.46 27.50 287.95 26.45 291.28 28.00 C 294.61 29.55 300.99 34.38 304.60 37.32 C 308.20 40.26 311.59 44.09 312.92 45.64 C 314.25 47.19 314.08 47.92 312.58 46.64 Z M 277.97 42.65 C 277.75 42.87 276.36 39.15 276.30 37.65 C 276.25 36.15 277.02 34.71 277.64 33.66 C 278.25 32.60 279.96 30.88 279.96 31.33 C 279.96 31.77 277.97 34.44 277.64 36.32 C 277.30 38.21 278.19 42.42 277.97 42.65 Z M 287.95 50.63 C 288.45 51.24 282.91 47.92 281.30 46.64 C 279.69 45.36 277.19 42.31 278.30 42.98 C 279.41 43.64 287.45 50.02 287.95 50.63 Z M 315.91 51.30 C 315.36 50.86 313.36 48.41 312.92 47.64 C 312.47 46.86 312.69 46.20 313.25 46.64 C 313.80 47.08 315.80 49.52 316.25 50.30 C 316.69 51.08 316.47 51.74 315.91 51.30 Z M 293.28 95.24 C 293.28 94.57 298.55 81.42 299.60 76.93 C 300.66 72.44 300.05 70.94 299.60 68.27 C 299.16 65.61 298.77 63.89 296.94 60.95 C 295.11 58.01 288.95 51.41 288.62 50.63 C 288.29 49.86 293.45 54.68 294.94 56.29 C 296.44 57.90 296.61 57.96 297.61 60.29 C 298.60 62.62 300.60 66.83 300.93 70.27 C 301.27 73.71 300.88 76.76 299.60 80.92 C 298.33 85.08 293.28 95.90 293.28 95.24 Z M 299.27 160.47 C 299.27 161.03 297.00 157.31 296.27 155.48 C 295.55 153.65 294.94 151.93 294.94 149.49 C 294.94 147.05 294.83 145.27 296.27 140.84 C 297.72 136.40 300.38 129.74 303.60 122.86 C 306.81 115.98 312.47 107.44 315.58 99.56 C 318.69 91.68 321.24 81.59 322.24 75.60 C 323.24 69.61 322.51 67.66 321.57 63.61 C 320.63 59.56 316.47 51.52 316.58 51.30 C 316.69 51.08 321.18 58.01 322.24 62.28 C 323.29 66.55 323.12 72.82 322.90 76.93 C 322.68 81.03 322.01 83.03 320.91 86.91 C 319.80 90.80 319.02 94.13 316.25 100.23 C 313.47 106.33 307.37 116.98 304.26 123.53 C 301.16 130.07 298.94 135.95 297.61 139.50 C 296.27 143.05 296.50 142.72 296.27 144.83 C 296.05 146.94 295.78 149.54 296.27 152.15 C 296.77 154.76 299.27 159.92 299.27 160.47 Z M 333.89 85.25 C 333.05 85.86 334.00 83.47 334.88 82.25 C 335.77 81.03 337.94 78.87 339.21 77.93 C 340.49 76.98 341.21 76.82 342.54 76.60 C 343.87 76.37 345.37 75.87 347.20 76.60 C 349.03 77.32 352.53 80.04 353.52 80.92 C 354.52 81.81 353.69 82.20 353.19 81.92 C 352.69 81.64 352.08 80.04 350.53 79.26 C 348.98 78.48 345.65 77.37 343.87 77.26 C 342.10 77.15 341.54 77.26 339.88 78.59 C 338.21 79.92 334.72 84.64 333.89 85.25 Z M 342.54 115.87 C 340.76 118.98 341.82 114.71 343.54 110.88 C 345.26 107.05 351.03 97.51 352.86 92.91 C 354.69 88.30 354.30 83.36 354.52 83.25 C 354.74 83.14 356.19 86.80 354.19 92.24 C 352.19 97.68 344.32 112.76 342.54 115.87 Z M 328.56 93.90 C 328.01 94.35 328.78 91.68 329.56 90.24 C 330.34 88.80 332.67 85.69 333.22 85.25 C 333.78 84.81 333.66 86.14 332.89 87.58 C 332.11 89.02 329.12 93.46 328.56 93.90 Z M 320.57 159.81 C 320.46 160.03 314.86 150.99 313.58 146.16 C 312.31 141.33 312.14 136.40 312.92 130.85 C 313.69 125.30 315.75 119.03 318.24 112.88 C 320.74 106.72 328.01 93.24 327.89 93.90 C 327.78 94.57 319.96 110.38 317.58 116.87 C 315.19 123.36 314.14 128.19 313.58 132.85 C 313.03 137.51 313.08 140.34 314.25 144.83 C 315.41 149.32 320.68 159.59 320.57 159.81 Z M 305.93 211.73 C 306.04 212.29 303.76 210.46 302.93 209.40 C 302.10 208.35 301.71 207.96 300.93 205.41 C 300.16 202.86 299.27 197.09 298.27 194.09 C 297.27 191.09 298.49 191.87 294.94 187.43 C 291.39 183.00 280.52 171.90 276.97 167.46 C 273.42 163.02 274.53 163.25 273.64 160.81 C 272.75 158.36 271.98 155.92 271.64 152.82 C 271.31 149.71 271.09 146.16 271.64 142.17 C 272.20 138.17 273.09 133.96 274.97 128.85 C 276.86 123.75 280.02 117.15 282.96 111.54 C 285.90 105.94 291.50 96.68 292.61 95.24 C 293.72 93.79 291.89 98.51 289.62 102.89 C 287.34 107.27 281.41 116.76 278.97 121.53 C 276.53 126.30 275.97 128.41 274.97 131.52 C 273.97 134.62 273.42 137.06 272.98 140.17 C 272.53 143.28 272.20 147.27 272.31 150.15 C 272.42 153.04 272.86 154.93 273.64 157.48 C 274.42 160.03 275.75 163.14 276.97 165.47 C 278.19 167.80 277.86 167.91 280.96 171.46 C 284.07 175.01 292.61 183.11 295.61 186.77 C 298.60 190.43 297.83 190.21 298.94 193.42 C 300.05 196.64 301.10 203.02 302.27 206.07 C 303.43 209.12 305.82 211.18 305.93 211.73 Z M 246.01 176.45 C 245.02 175.12 241.85 170.74 240.36 167.46 C 238.86 164.19 237.69 160.92 237.03 156.81 C 236.36 152.71 236.25 146.38 236.36 142.83 C 236.47 139.28 236.58 139.06 237.69 135.51 C 238.80 131.96 240.58 126.63 243.02 121.53 C 245.46 116.43 249.73 108.27 252.34 104.89 C 254.95 101.50 256.72 101.84 258.66 101.23 C 260.60 100.62 262.82 101.06 263.99 101.23 C 265.15 101.39 266.43 102.11 265.65 102.22 C 264.88 102.34 261.44 101.34 259.33 101.89 C 257.22 102.45 255.50 102.39 253.00 105.55 C 250.51 108.72 246.79 115.65 244.35 120.86 C 241.91 126.08 239.47 131.18 238.36 136.84 C 237.25 142.50 237.36 150.15 237.69 154.81 C 238.03 159.47 239.25 161.69 240.36 164.80 C 241.47 167.91 243.35 171.68 244.35 173.45 C 245.35 175.23 246.07 174.95 246.35 175.45 C 246.62 175.95 247.01 177.78 246.01 176.45 Z M 269.98 106.55 C 269.20 106.11 265.99 103.45 265.65 102.89 C 265.32 102.34 267.21 102.78 267.98 103.22 C 268.76 103.67 269.98 105.00 270.31 105.55 C 270.65 106.11 270.76 107.00 269.98 106.55 Z M 268.65 169.79 C 267.87 169.13 265.60 166.85 264.32 164.80 C 263.05 162.75 261.66 160.69 260.99 157.48 C 260.33 154.26 259.88 149.49 260.33 145.49 C 260.77 141.50 261.88 138.39 263.66 133.51 C 265.43 128.63 269.81 120.70 270.98 116.20 C 272.14 111.71 270.42 107.55 270.65 106.55 C 270.87 105.55 272.14 108.49 272.31 110.21 C 272.48 111.93 273.09 112.54 271.64 116.87 C 270.20 121.20 265.43 131.07 263.66 136.18 C 261.88 141.28 261.44 144.61 260.99 147.49 C 260.55 150.38 260.66 151.38 260.99 153.48 C 261.33 155.59 261.66 157.59 262.99 160.14 C 264.32 162.69 268.04 167.19 268.98 168.79 C 269.92 170.40 269.42 170.46 268.65 169.79 Z M 338.55 147.82 C 338.44 148.93 336.60 144.00 336.22 141.50 C 335.83 139.00 335.27 137.12 336.22 132.85 C 337.16 128.58 340.88 118.42 341.87 115.87 C 342.87 113.32 342.82 115.59 342.21 117.54 C 341.60 119.48 339.10 124.64 338.21 127.52 C 337.33 130.41 336.83 131.46 336.88 134.84 C 336.94 138.23 338.66 146.72 338.55 147.82 Z M 343.21 155.81 C 342.65 155.37 340.88 153.48 340.21 152.15 C 339.54 150.82 338.66 147.38 339.21 147.82 C 339.77 148.27 342.87 153.48 343.54 154.81 C 344.20 156.15 343.76 156.26 343.21 155.81 Z M 353.86 201.75 C 353.75 201.52 357.46 193.70 358.18 190.10 C 358.91 186.49 358.74 183.11 358.18 180.11 C 357.63 177.12 356.96 175.56 354.86 172.12 C 352.75 168.68 347.03 161.75 345.54 159.47 C 344.04 157.20 344.20 156.48 345.87 158.48 C 347.53 160.47 353.25 167.41 355.52 171.46 C 357.80 175.51 358.96 179.45 359.52 182.77 C 360.07 186.10 359.79 188.27 358.85 191.43 C 357.91 194.59 353.97 201.97 353.86 201.75 Z M 311.25 172.46 C 311.20 172.62 301.49 163.47 299.60 161.47 C 297.72 159.47 297.99 158.64 299.94 160.47 C 301.88 162.30 311.31 172.29 311.25 172.46 Z M 331.89 175.12 C 331.11 174.45 327.12 168.91 326.23 167.46 C 325.34 166.02 325.79 165.80 326.56 166.46 C 327.34 167.13 330.00 170.01 330.89 171.46 C 331.78 172.90 332.67 175.78 331.89 175.12 Z M 343.87 209.73 C 342.54 210.07 341.99 210.07 340.54 209.73 C 339.10 209.40 336.83 209.01 335.22 207.74 C 333.61 206.46 331.61 204.13 330.89 202.08 C 330.17 200.03 330.34 197.75 330.89 195.42 C 331.45 193.09 333.66 190.54 334.22 188.10 C 334.77 185.66 334.55 182.66 334.22 180.78 C 333.89 178.89 332.50 177.73 332.22 176.78 C 331.94 175.84 332.00 173.90 332.55 175.12 C 333.11 176.34 335.27 181.50 335.55 184.11 C 335.83 186.71 334.88 188.76 334.22 190.76 C 333.55 192.76 332.00 194.42 331.56 196.09 C 331.11 197.75 331.33 199.42 331.56 200.75 C 331.78 202.08 331.94 202.91 332.89 204.08 C 333.83 205.24 335.49 206.91 337.21 207.74 C 338.93 208.57 341.43 209.18 343.21 209.07 C 344.98 208.96 346.15 208.24 347.87 207.07 C 349.59 205.91 353.41 201.97 353.52 202.08 C 353.64 202.19 350.14 206.46 348.53 207.74 C 346.92 209.01 345.20 209.40 343.87 209.73 Z M 286.62 186.44 C 284.74 184.88 277.30 177.89 275.64 176.12 C 273.97 174.34 275.92 175.40 276.64 175.78 C 277.36 176.17 278.25 176.84 279.96 178.45 C 281.68 180.06 285.85 184.11 286.95 185.44 C 288.06 186.77 288.51 187.99 286.62 186.44 Z M 251.34 181.78 C 251.28 181.94 247.12 178.34 246.35 177.45 C 245.57 176.56 245.85 175.73 246.68 176.45 C 247.51 177.17 251.40 181.61 251.34 181.78 Z M 315.91 215.06 C 314.36 215.17 312.20 214.89 310.59 214.39 C 308.98 213.89 306.15 212.18 306.26 212.06 C 306.37 211.95 309.42 213.45 311.25 213.73 C 313.08 214.01 315.41 214.34 317.24 213.73 C 319.07 213.12 321.18 211.23 322.24 210.07 C 323.29 208.90 323.46 209.73 323.57 206.74 C 323.68 203.74 324.07 196.92 322.90 192.09 C 321.74 187.27 317.13 179.56 316.58 177.78 C 316.02 176.01 318.41 179.28 319.57 181.44 C 320.74 183.61 322.68 186.88 323.57 190.76 C 324.46 194.65 325.01 201.41 324.90 204.74 C 324.79 208.07 323.73 209.24 322.90 210.73 C 322.07 212.23 321.07 213.01 319.91 213.73 C 318.74 214.45 317.47 214.95 315.91 215.06 Z M 268.65 194.42 C 266.26 192.93 254.34 184.22 251.67 182.11 C 249.01 180.00 250.29 180.28 252.67 181.78 C 255.06 183.27 263.32 188.99 265.99 191.09 C 268.65 193.20 271.03 195.92 268.65 194.42 Z M 286.62 218.39 C 284.85 218.61 280.91 218.55 279.30 218.39 C 277.69 218.22 275.86 217.50 276.97 217.39 C 278.08 217.28 283.90 217.89 285.96 217.72 C 288.01 217.56 288.12 217.33 289.28 216.39 C 290.45 215.45 292.45 215.00 292.95 212.06 C 293.45 209.12 293.22 203.02 292.28 198.75 C 291.34 194.48 287.51 187.66 287.29 186.44 C 287.07 185.21 290.01 189.60 290.95 191.43 C 291.89 193.26 292.39 194.31 292.95 197.42 C 293.50 200.53 294.28 207.29 294.28 210.07 C 294.28 212.84 293.67 212.90 292.95 214.06 C 292.22 215.23 291.00 216.34 289.95 217.06 C 288.90 217.78 288.40 218.17 286.62 218.39 Z M 276.64 217.06 C 277.14 218.00 275.58 217.22 274.64 216.39 C 273.70 215.56 271.48 215.00 270.98 212.06 C 270.48 209.12 271.98 201.52 271.64 198.75 C 271.31 195.98 269.37 196.14 268.98 195.42 C 268.59 194.70 268.76 193.98 269.31 194.42 C 269.87 194.87 271.92 195.37 272.31 198.08 C 272.70 200.80 270.92 207.57 271.64 210.73 C 272.36 213.89 276.14 216.11 276.64 217.06 Z M 413.77 385.48 C 413.99 384.48 421.81 369.56 424.75 361.85 C 427.69 354.13 429.52 347.31 431.41 339.21 C 433.30 331.11 434.96 321.79 436.07 313.25 C 437.18 304.71 437.73 296.27 438.07 287.95 C 438.40 279.63 438.29 269.20 438.07 263.32 C 437.85 257.44 437.29 255.11 436.74 252.67 C 436.18 250.23 436.01 250.29 434.74 248.68 C 433.46 247.07 431.69 244.85 429.08 243.02 C 426.47 241.19 423.53 239.36 419.09 237.69 C 414.66 236.03 409.11 234.48 402.45 233.03 C 395.80 231.59 390.03 230.26 379.15 229.04 C 368.28 227.82 354.63 226.27 337.21 225.71 C 319.80 225.16 292.17 225.27 274.64 225.71 C 257.11 226.15 246.24 226.82 232.04 228.37 C 217.83 229.93 199.42 233.03 189.43 235.03 C 179.45 237.03 176.34 238.80 172.12 240.36 C 167.91 241.91 166.41 242.85 164.13 244.35 C 161.86 245.85 159.75 247.73 158.48 249.34 C 157.20 250.95 156.65 250.40 156.48 254.00 C 156.31 257.61 158.81 269.65 157.48 270.98 C 156.15 272.31 149.82 263.54 148.49 261.99 C 147.16 260.44 148.21 260.60 149.49 261.66 C 150.76 262.71 155.09 269.81 156.15 268.32 C 157.20 266.82 155.54 255.94 155.81 252.67 C 156.09 249.40 156.53 250.18 157.81 248.68 C 159.09 247.18 161.19 245.18 163.47 243.68 C 165.74 242.19 166.91 241.35 171.46 239.69 C 176.01 238.03 181.11 235.70 190.76 233.70 C 200.41 231.70 213.06 229.26 229.37 227.71 C 245.68 226.15 269.65 224.82 288.62 224.38 C 307.59 223.94 326.34 224.16 343.21 225.05 C 360.07 225.93 379.71 228.48 389.80 229.71 C 399.90 230.93 398.79 231.15 403.78 232.37 C 408.78 233.59 415.43 235.36 419.76 237.03 C 424.09 238.69 427.14 240.52 429.75 242.35 C 432.35 244.18 434.13 246.40 435.40 248.01 C 436.68 249.62 436.85 250.34 437.40 252.01 C 437.96 253.67 438.51 251.12 438.73 258.00 C 438.95 264.88 439.29 282.18 438.73 293.28 C 438.18 304.37 436.74 315.80 435.40 324.57 C 434.07 333.33 432.74 338.66 430.74 345.87 C 428.75 353.08 426.25 361.24 423.42 367.84 C 420.59 374.44 413.55 386.48 413.77 385.48 Z M 309.92 270.98 C 300.38 270.98 274.64 270.87 260.66 270.31 C 246.68 269.76 236.47 268.76 226.04 267.65 C 215.61 266.54 206.35 265.26 198.08 263.66 C 189.82 262.05 179.67 259.22 176.45 258.00 C 173.23 256.78 176.17 257.28 178.78 256.33 C 181.39 255.39 185.33 253.78 192.09 252.34 C 198.86 250.90 208.40 249.01 219.39 247.68 C 230.37 246.35 244.46 245.13 258.00 244.35 C 271.53 243.57 287.07 243.13 300.60 243.02 C 314.14 242.91 328.01 243.24 339.21 243.68 C 350.42 244.13 357.41 244.46 367.84 245.68 C 378.27 246.90 394.41 249.40 401.79 251.01 C 409.16 252.62 410.55 254.34 412.11 255.33 C 413.66 256.33 412.16 256.39 411.11 257.00 C 410.05 257.61 412.99 259.55 405.78 259.00 C 398.57 258.44 379.60 254.89 367.84 253.67 C 356.08 252.45 347.87 251.89 335.22 251.67 C 322.57 251.45 302.99 251.73 291.95 252.34 C 280.91 252.95 271.53 255.22 268.98 255.33 C 266.43 255.45 273.59 253.61 276.64 253.00 C 279.69 252.39 276.30 252.01 287.29 251.67 C 298.27 251.34 327.89 250.67 342.54 251.01 C 357.19 251.34 365.84 252.67 375.16 253.67 C 384.48 254.67 394.02 256.22 398.46 257.00 C 402.90 257.78 400.68 258.11 401.79 258.33 C 402.90 258.55 403.62 258.72 405.12 258.33 C 406.61 257.94 410.11 256.67 410.77 256.00 C 411.44 255.33 411.38 255.17 409.11 254.34 C 406.84 253.50 404.45 252.34 397.13 251.01 C 389.80 249.68 376.38 247.46 365.17 246.35 C 353.97 245.24 343.54 244.68 329.89 244.35 C 316.25 244.02 298.16 244.02 283.29 244.35 C 268.43 244.68 251.01 245.68 240.69 246.35 C 230.37 247.01 228.26 247.46 221.38 248.34 C 214.51 249.23 206.46 250.18 199.42 251.67 C 192.37 253.17 181.66 256.00 179.11 257.33 C 176.56 258.66 180.72 258.72 184.11 259.66 C 187.49 260.60 192.09 261.77 199.42 262.99 C 206.74 264.21 213.40 265.76 228.04 266.98 C 242.69 268.20 273.14 269.92 287.29 270.31 C 301.43 270.70 309.03 269.65 312.92 269.31 C 316.80 268.98 309.59 268.32 310.59 268.32 C 311.59 268.32 317.69 268.98 318.91 269.31 C 320.13 269.65 319.41 270.04 317.91 270.31 C 316.41 270.59 319.46 270.98 309.92 270.98 Z M 87.58 344.20 C 88.02 345.09 85.53 343.26 83.92 341.21 C 82.31 339.16 79.37 334.66 77.93 331.89 C 76.48 329.12 76.04 327.56 75.26 324.57 C 74.49 321.57 73.49 318.80 73.27 313.92 C 73.05 309.03 73.27 300.38 73.93 295.28 C 74.60 290.17 76.15 286.40 77.26 283.29 C 78.37 280.19 79.37 278.74 80.59 276.64 C 81.81 274.53 82.64 272.92 84.58 270.65 C 86.53 268.37 89.19 265.38 92.24 262.99 C 95.29 260.60 100.01 257.89 102.89 256.33 C 105.78 254.78 106.88 254.45 109.55 253.67 C 112.21 252.89 115.87 252.01 118.87 251.67 C 121.86 251.34 124.41 251.23 127.52 251.67 C 130.63 252.12 134.95 253.45 137.51 254.34 C 140.06 255.22 141.45 256.17 142.83 257.00 C 144.22 257.83 148.05 259.99 145.83 259.33 C 143.61 258.66 133.24 254.17 129.52 253.00 C 125.80 251.84 126.63 252.12 123.53 252.34 C 120.42 252.56 115.21 253.00 110.88 254.34 C 106.55 255.67 100.56 258.77 97.56 260.33 C 94.57 261.88 95.62 260.83 92.91 263.66 C 90.19 266.48 84.20 272.36 81.26 277.30 C 78.32 282.24 76.48 288.51 75.26 293.28 C 74.04 298.05 74.04 302.04 73.93 305.93 C 73.82 309.81 73.93 312.69 74.60 316.58 C 75.26 320.46 76.82 326.01 77.93 329.23 C 79.04 332.44 79.65 333.39 81.26 335.88 C 82.86 338.38 87.14 343.32 87.58 344.20 Z M 309.92 268.32 C 304.48 267.65 281.63 264.21 274.64 262.99 C 267.65 261.77 269.26 261.60 267.98 260.99 C 266.71 260.38 266.10 259.22 266.98 259.33 C 267.87 259.44 266.60 260.38 273.31 261.66 C 280.02 262.93 301.16 265.87 307.26 266.98 C 313.36 268.09 315.36 268.98 309.92 268.32 Z M 99.56 326.90 C 99.34 326.79 96.18 322.07 95.24 319.91 C 94.29 317.74 94.13 317.24 93.90 313.92 C 93.68 310.59 93.13 304.48 93.90 299.94 C 94.68 295.39 96.29 290.56 98.56 286.62 C 100.84 282.68 104.83 278.69 107.55 276.30 C 110.27 273.92 112.10 273.20 114.87 272.31 C 117.65 271.42 121.09 270.76 124.19 270.98 C 127.30 271.20 131.85 272.98 133.51 273.64 C 135.18 274.31 135.29 275.19 134.18 274.97 C 133.07 274.75 129.52 272.75 126.86 272.31 C 124.19 271.87 120.31 272.09 118.20 272.31 C 116.09 272.53 115.87 272.86 114.21 273.64 C 112.54 274.42 110.71 274.69 108.22 276.97 C 105.72 279.24 101.50 283.24 99.23 287.29 C 96.95 291.34 95.35 297.05 94.57 301.27 C 93.79 305.48 94.24 309.37 94.57 312.58 C 94.90 315.80 95.73 318.19 96.57 320.57 C 97.40 322.96 99.78 327.01 99.56 326.90 Z M 396.46 375.49 C 396.46 375.05 403.40 362.34 406.11 355.19 C 408.83 348.03 411.00 340.65 412.77 332.55 C 414.55 324.46 415.93 316.08 416.76 306.59 C 417.60 297.11 420.48 279.91 417.76 275.64 C 415.05 271.37 406.78 279.41 400.46 280.96 C 394.13 282.52 393.24 283.40 379.82 284.96 C 366.39 286.51 339.43 289.40 319.91 290.28 C 300.38 291.17 278.19 290.73 262.66 290.28 C 247.12 289.84 238.58 288.95 226.71 287.62 C 214.84 286.29 199.08 283.63 191.43 282.29 C 183.77 280.96 183.27 280.46 180.78 279.63 C 178.28 278.80 173.34 276.75 176.45 277.30 C 179.56 277.86 190.60 281.35 199.42 282.96 C 208.24 284.57 217.72 285.85 229.37 286.95 C 241.02 288.06 255.56 289.17 269.31 289.62 C 283.07 290.06 300.16 289.84 311.92 289.62 C 323.68 289.40 328.89 289.17 339.88 288.29 C 350.86 287.40 367.50 285.73 377.82 284.29 C 388.14 282.85 394.91 281.30 401.79 279.63 C 408.67 277.97 416.49 269.59 419.09 274.31 C 421.70 279.02 418.37 297.99 417.43 307.92 C 416.49 317.85 415.32 325.56 413.44 333.89 C 411.55 342.21 408.94 350.92 406.11 357.85 C 403.28 364.79 396.46 375.94 396.46 375.49 Z M 147.49 286.95 C 145.27 285.18 135.84 276.86 134.51 275.31 C 133.18 273.75 137.28 275.86 139.50 277.64 C 141.72 279.41 146.49 284.40 147.82 285.96 C 149.16 287.51 149.71 288.73 147.49 286.95 Z M 195.42 376.82 C 196.42 379.38 193.26 374.55 191.76 371.83 C 190.26 369.11 188.43 365.95 186.44 360.51 C 184.44 355.08 181.66 348.64 179.78 339.21 C 177.89 329.78 175.95 314.30 175.12 303.93 C 174.29 293.56 174.67 281.41 174.79 276.97 C 174.90 272.53 175.51 272.03 175.78 277.30 C 176.06 282.57 175.67 298.49 176.45 308.59 C 177.23 318.69 178.89 329.89 180.44 337.88 C 182.00 345.87 183.27 350.03 185.77 356.52 C 188.27 363.01 194.42 374.27 195.42 376.82 Z M 140.17 327.56 C 138.89 328.06 139.17 327.45 139.17 327.23 C 139.17 327.01 139.00 326.84 140.17 326.23 C 141.33 325.62 143.33 323.85 146.16 323.57 C 148.99 323.29 155.54 329.28 157.14 324.57 C 158.75 319.85 157.37 301.38 155.81 295.28 C 154.26 289.17 149.10 289.34 147.82 287.95 C 146.55 286.57 146.72 285.85 148.16 286.95 C 149.60 288.06 154.76 288.01 156.48 294.61 C 158.20 301.21 159.31 321.63 158.48 326.56 C 157.64 331.50 153.43 324.62 151.49 324.23 C 149.54 323.85 148.71 323.68 146.83 324.23 C 144.94 324.79 141.45 327.06 140.17 327.56 Z M 301.27 303.60 C 300.55 303.87 300.38 303.15 300.93 302.60 C 301.49 302.04 302.76 300.66 304.60 300.27 C 306.43 299.88 309.87 299.88 311.92 300.27 C 313.97 300.66 317.13 302.49 316.91 302.60 C 316.69 302.71 312.53 301.21 310.59 300.93 C 308.65 300.66 306.81 300.49 305.26 300.93 C 303.71 301.38 301.99 303.32 301.27 303.60 Z M 317.91 312.25 C 317.80 311.70 319.07 307.31 318.91 305.93 C 318.74 304.54 317.19 304.43 316.91 303.93 C 316.63 303.43 316.80 302.71 317.24 302.93 C 317.69 303.15 319.19 304.21 319.57 305.26 C 319.96 306.32 319.85 308.09 319.57 309.26 C 319.30 310.42 318.02 312.81 317.91 312.25 Z M 295.28 316.25 C 294.50 317.35 294.28 316.25 294.94 314.58 C 295.61 312.92 298.49 307.37 299.27 306.26 C 300.05 305.15 300.27 306.26 299.60 307.92 C 298.94 309.59 296.05 315.14 295.28 316.25 Z M 343.21 322.90 C 343.09 323.01 330.89 316.80 327.89 315.58 C 324.90 314.36 325.90 315.36 325.23 315.58 C 324.57 315.80 324.18 316.86 323.90 316.91 C 323.62 316.97 323.24 316.36 323.57 315.91 C 323.90 315.47 325.07 314.41 325.90 314.25 C 326.73 314.08 325.68 313.47 328.56 314.91 C 331.45 316.36 343.32 322.79 343.21 322.90 Z M 313.92 320.91 C 313.47 321.35 313.25 320.24 313.58 319.24 C 313.92 318.24 315.47 315.36 315.91 314.91 C 316.36 314.47 316.58 315.58 316.25 316.58 C 315.91 317.58 314.36 320.46 313.92 320.91 Z M 263.99 350.20 C 259.61 349.03 235.92 344.87 236.36 341.87 C 236.81 338.88 261.33 334.44 266.65 332.22 C 271.98 330.00 268.04 330.72 268.32 328.56 C 268.59 326.40 268.70 321.29 268.32 319.24 C 267.93 317.19 267.71 316.41 265.99 316.25 C 264.27 316.08 262.32 316.69 258.00 318.24 C 253.67 319.80 243.30 324.40 240.02 325.56 C 236.75 326.73 235.47 326.56 238.36 325.23 C 241.24 323.90 252.62 319.19 257.33 317.58 C 262.05 315.97 264.71 315.41 266.65 315.58 C 268.59 315.75 268.59 316.08 268.98 318.58 C 269.37 321.07 269.26 328.17 268.98 330.56 C 268.70 332.94 272.20 331.00 267.32 332.89 C 262.44 334.77 240.47 339.21 239.69 341.87 C 238.91 344.54 258.61 347.48 262.66 348.86 C 266.71 350.25 268.37 351.36 263.99 350.20 Z M 324.57 352.86 C 319.35 354.52 318.52 354.25 322.90 352.53 C 327.28 350.81 350.58 345.59 350.86 342.54 C 351.14 339.49 329.34 336.11 324.57 334.22 C 319.80 332.33 322.62 333.72 322.24 331.22 C 321.85 328.73 322.07 321.63 322.24 319.24 C 322.40 316.86 323.12 315.25 323.24 316.91 C 323.35 318.58 322.57 326.45 322.90 329.23 C 323.24 332.00 320.02 331.33 325.23 333.55 C 330.45 335.77 354.30 339.32 354.19 342.54 C 354.08 345.76 329.78 351.19 324.57 352.86 Z M 268.65 373.49 C 265.54 379.49 264.32 380.60 268.32 371.83 C 272.31 363.07 288.51 329.12 292.61 320.91 C 296.72 312.69 293.89 320.07 292.95 322.57 C 292.00 325.07 291.00 327.40 286.95 335.88 C 282.91 344.37 271.75 367.50 268.65 373.49 Z M 309.26 330.89 C 308.59 331.78 308.37 330.67 308.92 329.23 C 309.48 327.78 311.92 323.12 312.58 322.24 C 313.25 321.35 313.47 322.46 312.92 323.90 C 312.36 325.34 309.92 330.00 309.26 330.89 Z M 355.85 328.89 C 355.58 328.95 348.64 325.90 347.53 325.23 C 346.42 324.57 347.81 324.29 349.20 324.90 C 350.58 325.51 356.13 328.84 355.85 328.89 Z M 219.39 333.55 C 216.06 334.77 217.94 333.66 218.39 333.22 C 218.83 332.78 219.00 332.17 222.05 330.89 C 225.10 329.61 233.98 326.40 236.69 325.56 C 239.41 324.73 241.24 324.57 238.36 325.90 C 235.47 327.23 222.72 332.33 219.39 333.55 Z M 122.20 334.88 C 119.09 335.33 115.87 335.11 113.54 334.88 C 111.21 334.66 110.21 334.44 108.22 333.55 C 106.22 332.67 102.95 330.61 101.56 329.56 C 100.17 328.51 98.67 326.67 99.89 327.23 C 101.12 327.78 106.50 331.72 108.88 332.89 C 111.27 334.05 111.54 334.11 114.21 334.22 C 116.87 334.33 121.03 334.39 124.86 333.55 C 128.69 332.72 135.95 329.45 137.17 329.23 C 138.39 329.00 134.68 331.28 132.18 332.22 C 129.68 333.16 125.30 334.44 122.20 334.88 Z M 365.84 333.55 C 365.56 333.61 357.52 330.00 356.19 329.23 C 354.86 328.45 356.24 328.17 357.85 328.89 C 359.46 329.61 366.12 333.50 365.84 333.55 Z M 302.60 345.54 C 301.49 347.42 301.27 346.31 302.27 343.87 C 303.26 341.43 307.48 332.78 308.59 330.89 C 309.70 329.00 309.92 330.11 308.92 332.55 C 307.92 335.00 303.71 343.65 302.60 345.54 Z M 220.72 351.53 C 221.16 352.41 218.78 350.92 217.72 349.86 C 216.67 348.81 214.95 347.09 214.39 345.20 C 213.84 343.32 213.89 340.49 214.39 338.55 C 214.89 336.60 216.72 334.33 217.39 333.55 C 218.06 332.78 218.78 332.94 218.39 333.89 C 218.00 334.83 215.61 337.44 215.06 339.21 C 214.51 340.99 214.12 342.48 215.06 344.54 C 216.00 346.59 220.27 350.64 220.72 351.53 Z M 325.90 370.83 C 318.19 373.66 316.80 373.61 324.23 370.50 C 331.67 367.39 362.40 355.74 370.50 352.19 C 378.60 348.64 372.33 350.92 372.83 349.20 C 373.33 347.48 373.61 343.65 373.49 341.87 C 373.38 340.10 372.94 339.66 372.16 338.55 C 371.39 337.44 369.22 335.83 368.84 335.22 C 368.45 334.61 369.17 334.44 369.83 334.88 C 370.50 335.33 372.11 336.94 372.83 337.88 C 373.55 338.82 373.94 338.77 374.16 340.54 C 374.38 342.32 374.77 346.37 374.16 348.53 C 373.55 350.69 378.54 349.81 370.50 353.52 C 362.46 357.24 333.61 368.00 325.90 370.83 Z M 183.44 394.80 C 182.11 393.24 178.06 388.08 175.78 384.48 C 173.51 380.87 172.29 379.32 169.79 373.16 C 167.30 367.00 164.41 352.36 160.81 347.53 C 157.20 342.71 150.82 344.32 148.16 344.20 C 145.49 344.09 147.60 345.42 144.83 346.87 C 142.06 348.31 135.29 351.53 131.52 352.86 C 127.74 354.19 125.52 354.52 122.20 354.86 C 118.87 355.19 115.54 355.41 111.54 354.86 C 107.55 354.30 102.17 353.25 98.23 351.53 C 94.29 349.81 89.47 345.76 87.91 344.54 C 86.36 343.32 88.08 343.71 88.91 344.20 C 89.74 344.70 90.91 346.31 92.91 347.53 C 94.90 348.75 97.01 350.42 100.89 351.53 C 104.78 352.64 110.88 354.19 116.20 354.19 C 121.53 354.19 127.41 353.41 132.85 351.53 C 138.28 349.64 144.05 343.65 148.82 342.87 C 153.59 342.10 157.75 341.71 161.47 346.87 C 165.19 352.03 168.63 367.67 171.12 373.83 C 173.62 379.99 174.34 380.48 176.45 383.81 C 178.56 387.14 182.61 391.97 183.77 393.80 C 184.94 395.63 184.77 396.35 183.44 394.80 Z M 299.27 352.86 C 298.72 353.52 298.49 352.41 298.94 351.19 C 299.38 349.97 301.38 346.20 301.93 345.54 C 302.49 344.87 302.71 345.98 302.27 347.20 C 301.82 348.42 299.82 352.19 299.27 352.86 Z M 263.99 369.50 C 261.94 369.56 260.94 369.67 254.00 366.84 C 247.07 364.01 227.38 354.97 222.38 352.53 C 217.39 350.08 218.89 350.03 224.05 352.19 C 229.21 354.36 247.24 362.84 253.34 365.51 C 259.44 368.17 258.88 367.73 260.66 368.17 C 262.44 368.61 263.16 368.56 263.99 368.17 C 264.82 367.78 265.32 368.61 265.65 365.84 C 265.99 363.07 265.87 351.42 265.99 351.53 C 266.10 351.64 266.65 363.51 266.32 366.51 C 265.99 369.50 266.04 369.45 263.99 369.50 Z M 285.29 383.48 C 282.96 388.03 282.74 386.92 284.96 381.82 C 287.18 376.71 296.27 357.41 298.60 352.86 C 300.93 348.31 301.16 349.42 298.94 354.52 C 296.72 359.63 287.62 378.93 285.29 383.48 Z M 319.91 368.84 C 319.63 369.22 319.35 358.41 319.57 355.85 C 319.80 353.30 321.18 351.36 321.24 353.52 C 321.29 355.69 320.18 368.45 319.91 368.84 Z M 278.63 389.47 C 276.64 389.36 271.59 388.97 269.31 388.14 C 267.04 387.31 265.82 385.64 264.99 384.48 C 264.15 383.31 263.93 382.76 264.32 381.15 C 264.71 379.54 267.09 374.38 267.32 374.83 C 267.54 375.27 265.43 381.82 265.65 383.81 C 265.87 385.81 267.37 386.09 268.65 386.81 C 269.92 387.53 271.31 387.92 273.31 388.14 C 275.31 388.36 278.69 388.86 280.63 388.14 C 282.57 387.42 284.85 383.70 284.96 383.81 C 285.07 383.92 282.35 387.86 281.30 388.81 C 280.24 389.75 280.63 389.58 278.63 389.47 Z M 387.14 387.47 C 385.81 388.81 385.37 388.47 386.81 386.48 C 388.25 384.48 394.46 376.82 395.80 375.49 C 397.13 374.16 396.24 376.49 394.80 378.49 C 393.35 380.48 388.47 386.14 387.14 387.47 Z M 202.74 386.81 C 201.97 386.14 199.31 383.15 198.42 381.82 C 197.53 380.48 196.64 378.15 197.42 378.82 C 198.20 379.49 202.19 384.48 203.08 385.81 C 203.96 387.14 203.52 387.47 202.74 386.81 Z M 214.73 398.79 C 214.67 398.96 204.96 389.80 203.08 387.81 C 201.19 385.81 201.47 384.98 203.41 386.81 C 205.35 388.64 214.78 398.62 214.73 398.79 Z M 361.85 408.11 C 359.46 409.50 358.74 409.33 360.85 407.78 C 362.95 406.22 370.17 402.12 374.49 398.79 C 378.82 395.46 386.70 387.70 386.81 387.81 C 386.92 387.92 379.32 396.07 375.16 399.46 C 371.00 402.84 364.23 406.72 361.85 408.11 Z M 400.46 402.79 C 398.90 404.34 398.46 404.01 400.12 401.79 C 401.79 399.57 408.89 391.02 410.44 389.47 C 411.99 387.92 411.11 390.25 409.44 392.47 C 407.78 394.69 402.01 401.23 400.46 402.79 Z M 201.41 412.77 C 201.80 413.49 189.38 401.95 186.44 399.12 C 183.49 396.29 184.16 396.52 183.77 395.80 C 183.38 395.07 181.16 391.97 184.11 394.80 C 187.05 397.63 201.02 412.05 201.41 412.77 Z M 223.38 405.45 C 222.88 405.28 219.28 402.79 219.05 402.45 C 218.83 402.12 221.33 402.95 222.05 403.45 C 222.77 403.95 223.88 405.61 223.38 405.45 Z M 233.37 411.44 C 232.98 411.38 226.60 407.78 225.71 407.11 C 224.82 406.45 226.76 406.72 228.04 407.45 C 229.32 408.17 233.75 411.49 233.37 411.44 Z M 391.80 411.44 C 391.08 412.05 390.25 411.77 390.80 411.11 C 391.36 410.44 394.96 407.39 395.13 407.45 C 395.30 407.50 392.52 410.83 391.80 411.44 Z M 299.27 425.42 C 292.50 425.64 285.12 425.59 277.97 424.75 C 270.81 423.92 259.44 421.20 256.33 420.43 C 253.23 419.65 255.61 419.48 259.33 420.09 C 263.05 420.70 273.53 423.31 278.63 424.09 C 283.74 424.86 284.29 424.86 289.95 424.75 C 295.61 424.64 304.37 424.64 312.58 423.42 C 320.79 422.20 331.17 419.93 339.21 417.43 C 347.26 414.93 358.74 409.11 360.85 408.44 C 362.95 407.78 356.02 411.61 351.86 413.44 C 347.70 415.27 341.43 417.76 335.88 419.43 C 330.34 421.09 324.68 422.42 318.58 423.42 C 312.47 424.42 306.04 425.20 299.27 425.42 Z M 404.45 437.40 C 403.28 436.57 400.34 433.19 397.79 431.41 C 395.24 429.64 393.19 428.25 389.14 426.75 C 385.09 425.25 373.27 424.98 373.49 422.42 C 373.72 419.87 387.97 412.83 390.47 411.44 C 392.97 410.05 390.75 412.38 388.47 414.10 C 386.20 415.82 376.82 419.87 376.82 421.76 C 376.82 423.64 385.20 424.14 388.47 425.42 C 391.75 426.69 394.30 428.14 396.46 429.41 C 398.62 430.69 400.07 431.91 401.45 433.07 C 402.84 434.24 404.28 435.68 404.78 436.40 C 405.28 437.12 405.61 438.23 404.45 437.40 Z M 256.00 420.09 C 257.78 421.09 250.84 419.37 247.35 418.10 C 243.85 416.82 236.81 413.44 235.03 412.44 C 233.26 411.44 233.20 410.83 236.69 412.11 C 240.19 413.38 254.22 419.09 256.00 420.09 Z M 192.09 421.42 C 189.32 422.31 188.43 421.98 190.43 421.09 C 192.43 420.20 201.80 417.26 204.08 416.10 C 206.35 414.93 203.58 414.16 204.08 414.10 C 204.58 414.05 209.07 414.55 207.07 415.77 C 205.07 416.99 194.87 420.54 192.09 421.42 Z M 174.79 432.74 C 172.79 434.07 173.90 432.52 174.45 431.74 C 175.01 430.97 176.73 429.25 178.11 428.08 C 179.50 426.92 181.39 425.47 182.77 424.75 C 184.16 424.03 187.77 422.42 186.44 423.75 C 185.10 425.09 176.78 431.41 174.79 432.74 Z M 385.14 446.06 C 382.59 445.28 375.49 441.73 369.17 440.06 C 362.84 438.40 354.52 435.85 347.20 436.07 C 339.88 436.29 331.56 440.18 325.23 441.40 C 318.91 442.62 314.69 442.95 309.26 443.39 C 303.82 443.84 299.05 444.17 292.61 444.06 C 286.18 443.95 278.41 443.73 270.65 442.73 C 262.88 441.73 253.34 440.06 246.01 438.07 C 238.69 436.07 232.48 431.52 226.71 430.74 C 220.94 429.97 216.89 431.80 211.40 433.41 C 205.91 435.02 194.65 440.29 193.76 440.40 C 192.87 440.51 200.69 435.90 206.07 434.07 C 211.45 432.24 219.61 428.97 226.04 429.41 C 232.48 429.86 236.92 434.63 244.68 436.74 C 252.45 438.84 260.99 441.17 272.64 442.06 C 284.29 442.95 304.37 442.62 314.58 442.06 C 324.79 441.51 328.56 439.95 333.89 438.73 C 339.21 437.51 343.98 435.18 346.53 434.74 C 349.09 434.29 344.87 435.18 349.20 436.07 C 353.52 436.96 367.50 439.07 372.50 440.06 C 377.49 441.06 377.16 441.28 379.15 442.06 C 381.15 442.84 383.48 444.06 384.48 444.72 C 385.48 445.39 387.70 446.83 385.14 446.06 Z M 317.91 484.00 C 305.71 484.33 280.41 484.22 269.31 484.00 C 258.22 483.78 258.77 483.45 251.34 482.67 C 243.91 481.89 232.70 480.67 224.71 479.34 C 216.72 478.01 208.96 476.12 203.41 474.68 C 197.86 473.24 195.64 472.57 191.43 470.69 C 187.21 468.80 181.61 466.08 178.11 463.36 C 174.62 460.65 171.96 456.54 170.46 454.38 C 168.96 452.21 169.35 452.49 169.13 450.38 C 168.91 448.27 168.79 444.06 169.13 441.73 C 169.46 439.40 170.29 437.90 171.12 436.40 C 171.96 434.91 174.23 432.08 174.12 432.74 C 174.01 433.41 171.18 437.57 170.46 440.40 C 169.74 443.23 169.35 446.94 169.79 449.72 C 170.24 452.49 170.96 454.43 173.12 457.04 C 175.28 459.65 178.95 462.98 182.77 465.36 C 186.60 467.75 191.09 469.58 196.09 471.35 C 201.08 473.13 204.08 474.35 212.73 476.01 C 221.38 477.68 237.47 480.12 248.01 481.34 C 258.55 482.56 264.99 483.00 275.97 483.33 C 286.95 483.67 304.37 483.56 313.92 483.33 C 323.46 483.11 323.90 483.11 333.22 482.00 C 342.54 480.89 361.29 478.23 369.83 476.68 C 378.38 475.12 379.65 474.40 384.48 472.68 C 389.31 470.96 398.35 466.36 398.79 466.36 C 399.24 466.36 392.74 470.63 387.14 472.68 C 381.54 474.74 372.61 477.12 365.17 478.67 C 357.74 480.23 350.42 481.12 342.54 482.00 C 334.66 482.89 330.11 483.67 317.91 484.00 Z M 404.45 461.37 C 404.56 460.59 407.50 455.87 408.11 453.05 C 408.72 450.22 408.61 447.00 408.11 444.39 C 407.61 441.78 405.00 437.51 405.12 437.40 C 405.23 437.29 408.06 441.45 408.78 443.73 C 409.50 446.00 409.66 448.72 409.44 451.05 C 409.22 453.38 408.28 455.99 407.45 457.71 C 406.61 459.42 404.34 462.14 404.45 461.37 Z M 190.76 447.39 C 190.65 447.28 189.32 445.50 189.76 444.39 C 190.21 443.28 193.31 440.62 193.42 440.73 C 193.54 440.84 190.87 443.95 190.43 445.06 C 189.99 446.17 190.87 447.50 190.76 447.39 Z M 318.58 464.03 C 305.71 464.47 287.07 464.47 273.97 464.03 C 260.88 463.59 248.12 462.14 240.02 461.37 C 231.92 460.59 231.26 460.48 225.38 459.37 C 219.50 458.26 210.23 456.43 204.74 454.71 C 199.25 452.99 191.43 448.94 192.43 449.05 C 193.42 449.16 205.02 453.77 210.73 455.38 C 216.45 456.98 220.50 457.71 226.71 458.70 C 232.92 459.70 239.02 460.59 248.01 461.37 C 257.00 462.14 269.98 463.03 280.63 463.36 C 291.28 463.70 301.38 463.70 311.92 463.36 C 322.46 463.03 335.00 462.25 343.87 461.37 C 352.75 460.48 359.40 459.15 365.17 458.04 C 370.94 456.93 375.27 455.71 378.49 454.71 C 381.71 453.71 383.09 452.88 384.48 452.05 C 385.87 451.21 386.59 450.72 386.81 449.72 C 387.03 448.72 385.59 446.17 385.81 446.06 C 386.03 445.94 388.25 447.94 388.14 449.05 C 388.03 450.16 386.31 451.77 385.14 452.71 C 383.98 453.66 384.26 453.71 381.15 454.71 C 378.04 455.71 371.50 457.59 366.51 458.70 C 361.51 459.81 359.18 460.48 351.19 461.37 C 343.21 462.25 331.45 463.59 318.58 464.03 Z M 399.79 466.03 C 398.90 466.58 398.13 466.47 398.79 465.69 C 399.46 464.92 402.90 461.92 403.78 461.37 C 404.67 460.81 404.78 461.59 404.12 462.36 C 403.45 463.14 400.68 465.47 399.79 466.03 Z"/>
</svg>
