<svg width="84" height="83" viewBox="0 0 84 83" fill="none" xmlns="http://www.w3.org/2000/svg">
<path d="M2.57031 14.6562C2.57031 7.19625 8.61031 1.15625 16.0703 1.15625H70.0403C77.5003 1.15625 83.5403 7.19625 83.5403 14.6562V68.6363C83.5403 76.0963 77.4903 82.1363 70.0403 82.1363H16.0703C8.61031 82.1363 2.57031 76.0963 2.57031 68.6363V14.6562Z" fill="#233876"/>
<path d="M53.8418 30.0789V27.5781C50.5251 26.195 51.5106 22.6522 53.1974 20.3408C53.9365 19.3367 54.7704 18.2379 55.9644 19.3936C58.1628 21.5344 59.7737 26.0435 56.116 27.6349V30.0978H66.8618C67.8663 30.0978 69.155 31.6703 69.3824 32.5987C69.6667 33.7922 69.7046 38.9076 69.4962 40.139C69.4014 40.7074 69.2498 40.8779 68.776 41.1621C67.8473 41.6736 63.8863 43.3219 62.9387 43.4166C60.6645 43.644 59.3568 42.5641 57.3668 41.882C56.3245 41.5221 56.0591 41.4463 54.9599 41.7683C52.3635 42.5451 51.1885 44.0797 48.1372 43.1324C46.9053 42.7535 44.8964 41.5221 43.7024 41.541C42.281 41.5599 40.1584 43.0756 38.6232 43.3598C36.1405 43.8145 34.7002 42.4125 32.5586 41.7683C30.1517 41.0484 28.1617 43.2461 25.7927 43.4166C24.0681 43.5492 20.4103 42.0525 18.8373 41.2C18.0982 40.8021 18.0413 40.48 17.9845 39.6464C17.8707 37.9982 17.8707 35.3837 17.9845 33.7354C18.0603 32.5229 18.4014 31.443 19.4248 30.6852C19.5954 30.5525 20.524 30.0789 20.6756 30.0789H31.4215V27.616C27.7827 26.0245 29.3936 21.5155 31.5731 19.3746C32.7671 18.2189 33.601 19.3178 34.3401 20.3219C36.0458 22.6333 37.0123 26.195 33.6957 27.5591V30.0599H42.4895L42.66 29.8894V25.4183C41.6745 24.8878 40.8785 24.2815 40.5564 23.1637C40.0067 21.326 41.3902 17.859 42.2052 16.1349C42.4137 15.6802 42.8306 14.6571 43.3044 14.5056C44.5363 14.1267 44.8774 15.2445 45.2944 16.1349C46.1093 17.8779 47.4928 21.326 46.9432 23.1637C46.6021 24.3005 45.825 24.8878 44.8395 25.4183V29.8894L45.0101 30.0599H53.8038L53.8418 30.0789Z" fill="#76A9FA"/>
<path d="M19.0837 56.8504L68.3022 56.8125C74.2342 57.5703 71.6946 65.2812 66.8808 65.7548H20.6946C15.9945 65.2812 13.3412 57.7977 19.0837 56.8314V56.8504Z" fill="#76A9FA"/>
<path d="M67.2597 44.2719V54.6352H20.3154V44.2719C21.9453 44.7645 23.2909 45.636 25.0534 45.6928C27.4035 45.7876 29.2608 44.5371 31.4024 43.8172C32.8806 44.0635 34.1883 44.9918 35.6287 45.3897C37.0691 45.7876 38.3957 45.7876 39.8929 45.3329C40.8784 45.0297 42.8305 43.9119 43.6265 43.8361C44.4225 43.7604 46.7346 45.0487 47.7012 45.3329C49.1605 45.7686 50.3924 45.8065 51.8706 45.4086C52.9698 45.1245 55.0925 43.874 55.9643 43.8172C56.7034 43.7793 59.1861 45.1055 60.1906 45.3707C62.9576 46.1475 64.7391 45.2002 67.2597 44.253V44.2719Z" fill="#76A9FA"/>
</svg>
