<?xml version="1.0" encoding="UTF-8"?>
<svg id="Capa_1" data-name="Capa 1" xmlns="http://www.w3.org/2000/svg" viewBox="0 0 84 83">
  <defs>
    <style>
      .cls-1 {
        fill: #233876;
      }

      .cls-2 {
        fill: #76a9fa;
      }
    </style>
  </defs>
  <path class="cls-1" d="M2.57,14.66C2.57,7.2,8.61,1.16,16.07,1.16h53.97c7.46,0,13.5,6.04,13.5,13.5v53.98c0,7.46-6.05,13.5-13.5,13.5H16.07c-7.46,0-13.5-6.04-13.5-13.5V14.66Z"/>
  <g>
    <g>
      <path class="cls-2" d="M34.48,43.15H15.55c-.89,0-1.62-.72-1.62-1.62v-21.93c0-.89.72-1.62,1.62-1.62h45.64v1.63H15.57v21.89h18.91v1.63Z"/>
      <path class="cls-2" d="M70.65,66.58H24.92v-1.63h45.62v-21.89h-20.84v-1.63h20.94c.84,0,1.53.69,1.53,1.53v22.1c0,.84-.69,1.53-1.53,1.53Z"/>
      <rect class="cls-2" x="22.16" y="10.19" width="17.23" height="17.23" rx="8.61" ry="8.61"/>
      <rect class="cls-2" x="46.14" y="10.19" width="17.23" height="17.23" rx="8.61" ry="8.61"/>
      <rect class="cls-2" x="22.16" y="56.91" width="17.23" height="17.23" rx="8.61" ry="8.61"/>
      <rect class="cls-2" x="46.14" y="56.91" width="17.23" height="17.23" rx="8.61" ry="8.61"/>
    </g>
    <path class="cls-2" d="M50.07,41.82v.92l-.17,1.19c-.64,2.99-3.04,5.4-6.04,6.03l-1.19.17c-.3-.01-.62.02-.92,0-6.91-.4-9.98-9.02-4.81-13.7,4.89-4.42,12.76-1.14,13.13,5.38ZM45.79,39.06c-.24.03-.43.13-.61.28l-4.19,4.19-1.8-1.8c-1.09-.85-2.43.52-1.54,1.6.89.77,1.7,1.86,2.6,2.59.46.38,1.01.38,1.47,0,1.72-1.77,3.55-3.45,5.2-5.27.37-.8-.25-1.7-1.14-1.6Z"/>
  </g>
</svg>