<svg width="59" height="59" viewBox="0 0 59 59" fill="none" xmlns="http://www.w3.org/2000/svg">
<path d="M55.7222 22.9444H53.2409L50.9236 17.3493L52.6772 15.5924C53.2917 14.9777 53.6369 14.1442 53.6369 13.275C53.6369 12.4059 53.2917 11.5723 52.6772 10.9576L48.0424 6.32283C47.4277 5.70835 46.5942 5.36315 45.725 5.36315C44.8559 5.36315 44.0223 5.70835 43.4076 6.32283L41.6507 8.07645L36.0556 5.75906V3.27778C36.0556 2.40846 35.7102 1.57474 35.0955 0.960039C34.4808 0.345336 33.6471 0 32.7778 0H26.2222C25.3529 0 24.5192 0.345336 23.9045 0.960039C23.2898 1.57474 22.9444 2.40846 22.9444 3.27778V5.75906L17.3493 8.07645L15.5924 6.32283C14.9777 5.70835 14.1442 5.36315 13.275 5.36315C12.4059 5.36315 11.5723 5.70835 10.9576 6.32283L6.32283 10.9576C5.70835 11.5723 5.36315 12.4059 5.36315 13.275C5.36315 14.1442 5.70835 14.9777 6.32283 15.5924L8.07972 17.3493L5.75906 22.9444H3.27778C2.40846 22.9444 1.57474 23.2898 0.960039 23.9045C0.345336 24.5192 0 25.3529 0 26.2222V32.7778C0 33.6471 0.345336 34.4808 0.960039 35.0955C1.57474 35.7102 2.40846 36.0556 3.27778 36.0556H5.75906C6.87678 38.7532 6.962 38.9531 8.07645 41.6507L6.32283 43.4076C5.70835 44.0223 5.36315 44.8559 5.36315 45.725C5.36315 46.5942 5.70835 47.4277 6.32283 48.0424L10.9576 52.6772C11.5723 53.2917 12.4059 53.6369 13.275 53.6369C14.1442 53.6369 14.9777 53.2917 15.5924 52.6772L17.3493 50.9236L22.9444 53.2409V55.7222C22.9444 56.5915 23.2898 57.4253 23.9045 58.04C24.5192 58.6547 25.3529 59 26.2222 59H32.7778C33.6471 59 34.4808 58.6547 35.0955 58.04C35.7102 57.4253 36.0556 56.5915 36.0556 55.7222V53.2409L41.6507 50.9203L43.4076 52.6772C44.0223 53.2917 44.8559 53.6369 45.725 53.6369C46.5942 53.6369 47.4277 53.2917 48.0424 52.6772L52.6772 48.0424C53.2917 47.4277 53.6369 46.5942 53.6369 45.725C53.6369 44.8559 53.2917 44.0223 52.6772 43.4076L50.9236 41.6507L53.2409 36.0556H55.7222C56.5915 36.0556 57.4253 35.7102 58.04 35.0955C58.6547 34.4808 59 33.6471 59 32.7778V26.2222C59 25.3529 58.6547 24.5192 58.04 23.9045C57.4253 23.2898 56.5915 22.9444 55.7222 22.9444ZM29.5 42.6111C26.9069 42.6111 24.372 41.8422 22.2159 40.4015C20.0597 38.9608 18.3793 36.9132 17.3869 34.5174C16.3946 32.1217 16.1349 29.4855 16.6408 26.9422C17.1467 24.3988 18.3954 22.0627 20.229 20.229C22.0627 18.3954 24.3988 17.1467 26.9422 16.6408C29.4855 16.1349 32.1217 16.3946 34.5174 17.3869C36.9132 18.3793 38.9608 20.0597 40.4015 22.2159C41.8422 24.372 42.6111 26.9069 42.6111 29.5C42.6111 32.9773 41.2298 36.3121 38.771 38.771C36.3121 41.2298 32.9773 42.6111 29.5 42.6111Z" fill="#76A9FA"/>
</svg>
