<?xml version="1.0" encoding="UTF-8"?>
<svg id="Capa_1" data-name="Capa 1" xmlns="http://www.w3.org/2000/svg" viewBox="0 0 84 83">
  <defs>
    <style>
      .cls-1 {
        fill: #233876;
      }

      .cls-2 {
        fill: #76a9fa;
      }
    </style>
  </defs>
  <path class="cls-1" d="M1.52,14.51C1.52,7.05,7.56,1.01,15.01,1.01h53.97c7.46,0,13.5,6.04,13.5,13.5v53.98c0,7.46-6.05,13.5-13.5,13.5H15.01c-7.46,0-13.5-6.04-13.5-13.5V14.51Z"/>
  <path class="cls-2" d="M77.64,22.36v1.21c-.6,2.07-2.47,3.58-4.68,3.03l-9.03,18.44v.3c1.94,1.59,1.78,4.64-.31,6.03-2.36,1.57-5.54.07-5.81-2.69l-20.71-2.4c-.45,1.92-1.87,2.83-3.74,3.15l-3.55,16.25c2.27,1.31,2.68,4.5.6,6.2-3.22,2.62-7.61-1-5.78-4.68l-12.06-10.75c-3.38,2.15-7.44-1.28-5.57-4.95,1.77-3.48,7.48-1.93,7.09,2.24-.05.49-.58,1.44-.39,1.74l11.96,10.54c.83-.6,1.75-.92,2.79-.87l3.43-16.17c-1.01-.52-2.03-1.48-2.19-2.66-.71-5.1,6.04-6.3,7.5-1.57l20.77,2.4c.46-1.9,2.64-3.15,4.55-2.56l9.1-18.65c-2.36-1.52-1.88-5.37.67-6.45s4.81.41,5.38,2.88Z"/>
</svg>