<svg width="65" height="55" viewBox="0 0 65 55" fill="none" xmlns="http://www.w3.org/2000/svg">
<path d="M63.3916 0H40.4192V14.1211C40.4192 14.6349 39.7948 14.9014 39.4352 14.5208L37.2591 12.3322C37.032 12.1038 36.6725 12.1038 36.4454 12.3322L33.3421 15.4533C33.1339 15.6626 32.7933 15.6817 32.5662 15.4913L28.8952 12.3893C28.687 12.218 28.3843 12.218 28.1572 12.3893L25.4891 14.5969C25.1106 14.9014 24.5429 14.6349 24.5429 14.1592V0H1.60844C0.719068 0 0 0.723184 0 1.61765V53.3824C0 54.2768 0.719068 55 1.60844 55H63.3916C64.2809 55 65 54.2768 65 53.3824V1.61765C65 0.723184 64.2809 0 63.3916 0ZM45.5095 31.6869C45.5095 33.3235 44.1849 34.6557 42.5575 34.6557H22.4803C20.853 34.6557 19.5284 33.3235 19.5284 31.6869C19.5284 30.0502 20.853 28.718 22.4803 28.718H42.5575C44.1849 28.718 45.5095 30.0502 45.5095 31.6869Z" fill="#76A9FA"/>
</svg>
