<svg width="77" height="62" viewBox="0 0 77 62" fill="none" xmlns="http://www.w3.org/2000/svg">
<path d="M0.619995 0.100311L5.9 0.380314V18.9303C6.35 18.0003 7.05999 17.1803 8.02999 16.4603C8.99 15.7403 10.09 15.1903 11.32 14.8203C12.47 14.4603 13.65 14.2803 14.84 14.2803C17.13 14.2803 19.12 14.7603 20.81 15.7103C22.5 16.6603 23.78 18.0503 24.65 19.8603C25.52 21.6403 25.91 23.7803 25.81 26.3003L25.24 41.9903H19.96L20.53 26.6403C20.59 25.1803 20.37 23.8903 19.88 22.7503C19.39 21.6103 18.67 20.7303 17.72 20.0803C16.79 19.4603 15.7 19.1403 14.43 19.1403C13.5 19.1403 12.54 19.3203 11.54 19.6903C10.54 20.0603 9.57 20.5503 8.65 21.1803C7.8 21.7703 7.13 22.6003 6.65 23.6903C6.17 24.7803 5.92 25.9903 5.9 27.3303L5.62 41.9703H0.629997V0.0703125L0.619995 0.100311Z" fill="white"/>
<path d="M29.64 0.100075H34.92V18.6501C35.71 17.2701 36.93 16.2401 38.58 15.5701C40.23 14.9001 42.18 14.5601 44.45 14.5601C47.06 14.5601 49.39 15.1001 51.43 16.1901C53.47 17.2801 55.09 18.8601 56.28 20.9401C57.53 23.1101 58.15 25.6001 58.15 28.4001C58.15 31.2001 57.53 33.5901 56.29 35.7901C55.05 37.9901 53.36 39.6701 51.23 40.8201C50.3 41.3501 49.29 41.7201 48.19 41.9401C47.09 42.1601 45.83 42.2701 44.39 42.2701C42.29 42.2701 40.4 41.8801 38.7 41.0901C37.01 40.3101 35.75 39.2101 34.91 37.8101V41.9801H29.63V0.0800781L29.64 0.100075ZM39.63 36.2701C41.03 37.0301 42.58 37.4001 44.28 37.4001C45.98 37.4001 47.41 37.0101 48.75 36.2401C50.08 35.4601 51.14 34.3901 51.91 33.0101C52.67 31.6301 53.04 30.0801 53.04 28.3601C53.04 26.6401 52.66 25.1001 51.91 23.7401C51.15 22.3801 50.1 21.3201 48.76 20.5601C47.44 19.8201 45.94 19.4501 44.28 19.4501C43.11 19.4501 41.95 19.6401 40.82 20.0301C39.69 20.4201 38.7 20.9701 37.87 21.6901C36.96 22.4501 36.25 23.4101 35.74 24.5801C35.23 25.7501 34.97 27.0101 34.97 28.3501C34.97 30.1301 35.39 31.7001 36.22 33.0701C37.05 34.4401 38.19 35.5001 39.62 36.2601L39.63 36.2701Z" fill="white"/>
<path d="M69.57 43.6502C73.3531 43.6502 76.42 40.7043 76.42 37.0702C76.42 33.4362 73.3531 30.4902 69.57 30.4902C65.7868 30.4902 62.72 33.4362 62.72 37.0702C62.72 40.7043 65.7868 43.6502 69.57 43.6502Z" fill="white"/>
<path d="M9.75999 45.7007C16.25 51.3407 24.24 54.7707 32.98 55.0607C43.77 55.4207 53.76 50.9107 61.38 43.2207C61.38 43.2207 63.83 46.2907 66.86 46.8507C59.04 56.1507 46.59 61.9607 32.77 61.5007C19.35 61.0607 7.62 54.8007 0.369995 45.4607L9.75999 45.6907V45.7007Z" fill="white"/>
</svg>
