<svg width="78" height="80" viewBox="0 0 78 80" fill="none" xmlns="http://www.w3.org/2000/svg">
<path d="M10 66.1C10 67.6648 10.6216 69.1655 11.7281 70.2719C12.8345 71.3784 14.3352 72 15.9 72H63.1C64.6648 72 66.1655 71.3784 67.2719 70.2719C68.3784 69.1655 69 67.6648 69 66.1V36.6H10V66.1ZM51.3 43.975C51.3 43.5838 51.4554 43.2086 51.732 42.932C52.0086 42.6554 52.3838 42.5 52.775 42.5H55.725C56.1162 42.5 56.4914 42.6554 56.768 42.932C57.0446 43.2086 57.2 43.5838 57.2 43.975V46.925C57.2 47.3162 57.0446 47.6914 56.768 47.968C56.4914 48.2446 56.1162 48.4 55.725 48.4H52.775C52.3838 48.4 52.0086 48.2446 51.732 47.968C51.4554 47.6914 51.3 47.3162 51.3 46.925V43.975ZM51.3 55.775C51.3 55.3838 51.4554 55.0086 51.732 54.732C52.0086 54.4554 52.3838 54.3 52.775 54.3H55.725C56.1162 54.3 56.4914 54.4554 56.768 54.732C57.0446 55.0086 57.2 55.3838 57.2 55.775V58.725C57.2 59.1162 57.0446 59.4914 56.768 59.768C56.4914 60.0446 56.1162 60.2 55.725 60.2H52.775C52.3838 60.2 52.0086 60.0446 51.732 59.768C51.4554 59.4914 51.3 59.1162 51.3 58.725V55.775ZM36.55 43.975C36.55 43.5838 36.7054 43.2086 36.982 42.932C37.2586 42.6554 37.6338 42.5 38.025 42.5H40.975C41.3662 42.5 41.7414 42.6554 42.018 42.932C42.2946 43.2086 42.45 43.5838 42.45 43.975V46.925C42.45 47.3162 42.2946 47.6914 42.018 47.968C41.7414 48.2446 41.3662 48.4 40.975 48.4H38.025C37.6338 48.4 37.2586 48.2446 36.982 47.968C36.7054 47.6914 36.55 47.3162 36.55 46.925V43.975ZM36.55 55.775C36.55 55.3838 36.7054 55.0086 36.982 54.732C37.2586 54.4554 37.6338 54.3 38.025 54.3H40.975C41.3662 54.3 41.7414 54.4554 42.018 54.732C42.2946 55.0086 42.45 55.3838 42.45 55.775V58.725C42.45 59.1162 42.2946 59.4914 42.018 59.768C41.7414 60.0446 41.3662 60.2 40.975 60.2H38.025C37.6338 60.2 37.2586 60.0446 36.982 59.768C36.7054 59.4914 36.55 59.1162 36.55 58.725V55.775ZM21.8 43.975C21.8 43.5838 21.9554 43.2086 22.232 42.932C22.5086 42.6554 22.8838 42.5 23.275 42.5H26.225C26.6162 42.5 26.9914 42.6554 27.268 42.932C27.5446 43.2086 27.7 43.5838 27.7 43.975V46.925C27.7 47.3162 27.5446 47.6914 27.268 47.968C26.9914 48.2446 26.6162 48.4 26.225 48.4H23.275C22.8838 48.4 22.5086 48.2446 22.232 47.968C21.9554 47.6914 21.8 47.3162 21.8 46.925V43.975ZM21.8 55.775C21.8 55.3838 21.9554 55.0086 22.232 54.732C22.5086 54.4554 22.8838 54.3 23.275 54.3H26.225C26.6162 54.3 26.9914 54.4554 27.268 54.732C27.5446 55.0086 27.7 55.3838 27.7 55.775V58.725C27.7 59.1162 27.5446 59.4914 27.268 59.768C26.9914 60.0446 26.6162 60.2 26.225 60.2H23.275C22.8838 60.2 22.5086 60.0446 22.232 59.768C21.9554 59.4914 21.8 59.1162 21.8 58.725V55.775Z" fill="#76A9FA"/>
<path d="M69 24.8C69 23.2352 68.3784 21.7345 67.2719 20.6281C66.1655 19.5216 64.6648 18.9 63.1 18.9H57.2V15.95C57.2 15.1676 56.8892 14.4173 56.336 13.864C55.7827 13.3108 55.0324 13 54.25 13C53.4676 13 52.7173 13.3108 52.164 13.864C51.6108 14.4173 51.3 15.1676 51.3 15.95V18.9H42.45V15.95C42.45 15.1676 42.1392 14.4173 41.586 13.864C41.0327 13.3108 40.2824 13 39.5 13C38.7176 13 37.9673 13.3108 37.414 13.864C36.8608 14.4173 36.55 15.1676 36.55 15.95V18.9H27.7V15.95C27.7 15.1676 27.3892 14.4173 26.836 13.864C26.2827 13.3108 25.5324 13 24.75 13C23.9676 13 23.2173 13.3108 22.664 13.864C22.1108 14.4173 21.8 15.1676 21.8 15.95V18.9H15.9C14.3352 18.9 12.8345 19.5216 11.7281 20.6281C10.6216 21.7345 10 23.2352 10 24.8V30.7H69V24.8Z" fill="#76A9FA"/>
</svg>
