<?xml version="1.0" encoding="UTF-8" standalone="no" ?>
<!DOCTYPE svg PUBLIC "-//W3C//DTD SVG 1.1//EN" "http://www.w3.org/Graphics/SVG/1.1/DTD/svg11.dtd">
<svg xmlns="http://www.w3.org/2000/svg" xmlns:xlink="http://www.w3.org/1999/xlink" version="1.1" width="320" height="320" viewBox="0 0 320 320" xml:space="preserve">
<desc>Created with Fabric.js 5.2.4</desc>
<defs>
</defs>
<rect x="0" y="0" width="100%" height="100%" fill="transparent"></rect>
<g transform="matrix(1 0 0 1 160 160)" id="54053dbb-9ef6-4ae9-9c1b-7351521e13ea"  >
<rect style="stroke: none; stroke-width: 1; stroke-dasharray: none; stroke-linecap: butt; stroke-dashoffset: 0; stroke-linejoin: miter; stroke-miterlimit: 4; fill: rgb(255,255,255); fill-rule: nonzero; opacity: 1; visibility: hidden;" vector-effect="non-scaling-stroke"  x="-160" y="-160" rx="0" ry="0" width="320" height="320" />
</g>
<g transform="matrix(Infinity NaN NaN Infinity 0 0)" id="743df508-711c-4ccb-ba5e-dc7d211e8f76"  >
</g>
<g transform="matrix(1.29 0 0 1.29 160 160)"  >
<g style=""   >
		<g transform="matrix(1 0 0 1 0 0)"  >
<rect style="stroke: none; stroke-width: 1; stroke-dasharray: none; stroke-linecap: butt; stroke-dashoffset: 0; stroke-linejoin: miter; stroke-miterlimit: 4; fill: rgb(30,42,90); fill-rule: nonzero; opacity: 1;" vector-effect="non-scaling-stroke"  x="-120" y="-120" rx="48" ry="48" width="240" height="240" />
</g>
		<g transform="matrix(1 0 0 1 0 0)"  >
<rect style="stroke: rgb(90,141,255); stroke-width: 12; stroke-dasharray: none; stroke-linecap: round; stroke-dashoffset: 0; stroke-linejoin: round; stroke-miterlimit: 4; fill: none; fill-rule: nonzero; opacity: 1;" vector-effect="non-scaling-stroke"  x="-82" y="-82" rx="20" ry="20" width="164" height="164" />
</g>
		<g transform="matrix(1 0 0 1 0 0)"  >
<line style="stroke: rgb(90,141,255); stroke-width: 12; stroke-dasharray: none; stroke-linecap: round; stroke-dashoffset: 0; stroke-linejoin: round; stroke-miterlimit: 4; fill: none; fill-rule: nonzero; opacity: 1;" vector-effect="non-scaling-stroke"  x1="0" y1="-82" x2="0" y2="82" />
</g>
		<g transform="matrix(1 0 0 1 -46 -42)"  >
<circle style="stroke: none; stroke-width: 1; stroke-dasharray: none; stroke-linecap: butt; stroke-dashoffset: 0; stroke-linejoin: miter; stroke-miterlimit: 4; fill: rgb(90,141,255); fill-rule: nonzero; opacity: 1;" vector-effect="non-scaling-stroke"  cx="0" cy="0" r="8" />
</g>
		<g transform="matrix(1 0 0 1 -21 -42)"  >
<line style="stroke: rgb(90,141,255); stroke-width: 12; stroke-dasharray: none; stroke-linecap: round; stroke-dashoffset: 0; stroke-linejoin: round; stroke-miterlimit: 4; fill: none; fill-rule: nonzero; opacity: 1;" vector-effect="non-scaling-stroke"  x1="-9" y1="0" x2="9" y2="0" />
</g>
		<g transform="matrix(1 0 0 1 -46 0)"  >
<circle style="stroke: none; stroke-width: 1; stroke-dasharray: none; stroke-linecap: butt; stroke-dashoffset: 0; stroke-linejoin: miter; stroke-miterlimit: 4; fill: rgb(90,141,255); fill-rule: nonzero; opacity: 1;" vector-effect="non-scaling-stroke"  cx="0" cy="0" r="8" />
</g>
		<g transform="matrix(1 0 0 1 -21 0)"  >
<line style="stroke: rgb(90,141,255); stroke-width: 12; stroke-dasharray: none; stroke-linecap: round; stroke-dashoffset: 0; stroke-linejoin: round; stroke-miterlimit: 4; fill: none; fill-rule: nonzero; opacity: 1;" vector-effect="non-scaling-stroke"  x1="-9" y1="0" x2="9" y2="0" />
</g>
		<g transform="matrix(1 0 0 1 -46 42)"  >
<circle style="stroke: none; stroke-width: 1; stroke-dasharray: none; stroke-linecap: butt; stroke-dashoffset: 0; stroke-linejoin: miter; stroke-miterlimit: 4; fill: rgb(90,141,255); fill-rule: nonzero; opacity: 1;" vector-effect="non-scaling-stroke"  cx="0" cy="0" r="8" />
</g>
		<g transform="matrix(1 0 0 1 -21 42)"  >
<line style="stroke: rgb(90,141,255); stroke-width: 12; stroke-dasharray: none; stroke-linecap: round; stroke-dashoffset: 0; stroke-linejoin: round; stroke-miterlimit: 4; fill: none; fill-rule: nonzero; opacity: 1;" vector-effect="non-scaling-stroke"  x1="-9" y1="0" x2="9" y2="0" />
</g>
		<g transform="matrix(1 0 0 1 45 -42)"  >
<line style="stroke: rgb(90,141,255); stroke-width: 12; stroke-dasharray: none; stroke-linecap: round; stroke-dashoffset: 0; stroke-linejoin: round; stroke-miterlimit: 4; fill: none; fill-rule: nonzero; opacity: 1;" vector-effect="non-scaling-stroke"  x1="-33" y1="0" x2="33" y2="0" />
</g>
		<g transform="matrix(1 0 0 1 45 0)"  >
<line style="stroke: rgb(90,141,255); stroke-width: 12; stroke-dasharray: none; stroke-linecap: round; stroke-dashoffset: 0; stroke-linejoin: round; stroke-miterlimit: 4; fill: none; fill-rule: nonzero; opacity: 1;" vector-effect="non-scaling-stroke"  x1="-33" y1="0" x2="33" y2="0" />
</g>
		<g transform="matrix(1 0 0 1 50 50)"  >
<circle style="stroke: rgb(90,141,255); stroke-width: 12; stroke-dasharray: none; stroke-linecap: round; stroke-dashoffset: 0; stroke-linejoin: round; stroke-miterlimit: 4; fill: none; fill-rule: nonzero; opacity: 1;" vector-effect="non-scaling-stroke"  cx="0" cy="0" r="30" />
</g>
		<g transform="matrix(1 0 0 1 50 50.5)"  >
<line style="stroke: rgb(90,141,255); stroke-width: 12; stroke-dasharray: none; stroke-linecap: round; stroke-dashoffset: 0; stroke-linejoin: round; stroke-miterlimit: 4; fill: none; fill-rule: nonzero; opacity: 1;" vector-effect="non-scaling-stroke"  x1="0" y1="-11.5" x2="0" y2="11.5" />
</g>
		<g transform="matrix(1 0 0 1 50.5 50)"  >
<line style="stroke: rgb(90,141,255); stroke-width: 12; stroke-dasharray: none; stroke-linecap: round; stroke-dashoffset: 0; stroke-linejoin: round; stroke-miterlimit: 4; fill: none; fill-rule: nonzero; opacity: 1;" vector-effect="non-scaling-stroke"  x1="-11.5" y1="0" x2="11.5" y2="0" />
</g>
</g>
</g>
</svg>