<?xml version="1.0" encoding="UTF-8"?>
<svg id="Capa_1" data-name="Capa 1" xmlns="http://www.w3.org/2000/svg" viewBox="0 0 84 83">
  <defs>
    <style>
      .cls-1 {
        fill: #233876;
      }

      .cls-2 {
        fill: #76a9fa;
      }
    </style>
  </defs>
  <path class="cls-1" d="M1.52,14.51C1.52,7.05,7.56,1.01,15.01,1.01h53.97c7.46,0,13.5,6.04,13.5,13.5v53.98c0,7.46-6.05,13.5-13.5,13.5H15.01c-7.46,0-13.5-6.04-13.5-13.5V14.51Z"/>
  <g>
    <path class="cls-2" d="M43.98,29.25v2.66l.22.17c9.06,1.1,16.63,8.08,18.66,16.94.47,2.04.96,6.41.5,8.38-.18.79-1.2,2.12-2.03,2.12h-17.15l-.19.19v2.47l.19.19h22.74c.15,0,.94.46,1.1.59,1.85,1.58.86,4.79-1.61,4.87l-50.67-.02c-2.19-.4-2.96-3.32-1.31-4.8.17-.15,1-.65,1.17-.65h22.74l.19-.19v-2.47l-.19-.19h-17.15c-.39,0-1.31-.71-1.55-1.05-.82-1.14-.67-3.71-.59-5.12.55-10.53,7.56-18.76,17.8-21.06.55-.12,1.26-.08,1.69-.39v-2.66c-1.48.03-2.71.78-4.15.05-1.61-.82-1.91-3.11-.66-4.4.99-1.02,4.83-1.31,6.3-1.37,1.94-.08,5.95.08,7.73.72,2.39.86,2.45,4.34,0,5.19-1.34.47-2.41-.17-3.77-.19Z"/>
    <path class="cls-2" d="M23.03,19.8c.95-.16,1.66.09,2.42.64.62.45,2.4,2.25,2.67,2.91.99,2.39-1.38,4.7-3.76,3.63-.92-.41-3.24-2.84-3.44-3.83-.31-1.46.59-3.09,2.12-3.35Z"/>
    <path class="cls-2" d="M58.37,19.8c2.06-.35,3.7,1.41,3.19,3.45-.24.99-2.65,3.46-3.59,3.82-2.24.85-4.44-1.28-3.67-3.54.36-1.05,2.95-3.55,4.06-3.74Z"/>
    <path class="cls-2" d="M40.57,12.52c1.58-.27,3.23.56,3.41,2.24.09.88.1,3.62-.2,4.35-1.01,2.52-4.96,2.02-5.26-.71-.09-.79-.1-3.35.09-4.07.21-.83,1.12-1.67,1.96-1.81Z"/>
  </g>
</svg>