<?xml version="1.0" encoding="UTF-8"?>
<svg id="Capa_1" data-name="Capa 1" xmlns="http://www.w3.org/2000/svg" viewBox="0 0 35.88 36.42">
  <defs>
    <style>
      .cls-1 {
        fill: #959ca8;
      }
    </style>
  </defs>
  <path class="cls-1" d="M22.51,30.31c-.17.98.17,2.54-1.21,2.66-1.22.11-3.66.11-4.88,0-1.39-.12-1-1.62-1.23-2.61l-2.1-.9c-.84.31-1.51,1.7-2.56,1.13-1.12-1.2-2.69-2.39-3.71-3.65-.9-1.11.49-1.81.98-2.73l-.88-2.12c-.89-.3-2.36.14-2.62-1.09.08-1.63-.16-3.46-.02-5.06.12-1.39,1.62-1,2.61-1.23l.9-2.1c-.31-.84-1.75-1.56-1.11-2.6,1.22-1.09,2.38-2.65,3.63-3.66,1.11-.9,1.81.49,2.73.98l2.12-.88c.3-.89-.14-2.34,1.09-2.62,1.63.08,3.46-.16,5.06-.02,1.39.12,1,1.62,1.23,2.61l2.1.9c.89-.34,1.59-1.81,2.68-1.06.55.37,3.18,3.03,3.62,3.61.83,1.09-.54,1.81-1.01,2.7l.88,2.12c.84.27,2.42-.11,2.62,1.09-.08,1.63.16,3.46.02,5.06-.12,1.39-1.62,1-2.61,1.23l-.9,2.1c.34.89,1.81,1.59,1.06,2.68-.37.55-3.04,3.18-3.61,3.62-1.1.84-1.8-.54-2.7-1.01l-2.17.85ZM18.06,9.05c-5.78.43-9.85,6.39-8.22,11.95,2.33,7.96,13.28,9.18,17.22,1.93,3.59-6.59-1.57-14.43-9-13.88Z"/>
  <path class="cls-1" d="M13.21,24.04c-4.23-4.23-2.26-11.74,3.54-13.28,6.94-1.84,12.47,5.5,8.9,11.74-2.49,4.35-8.93,5.06-12.44,1.54ZM18.83,13.1c-.74.04-.57.88-.74,1.05-.08.07-.49.21-.68.35-1.85,1.33-1.21,4.04,1.02,4.55.48.11.84-.06,1.25.38.82.87-.03,2.36-1.28,1.88-.96-.37-.43-1.75-1.39-1.75-.79,0-.72.92-.56,1.47.13.45.58,1.01.96,1.28.17.12.6.25.68.35.18.21.03,1.09.8,1.05s.55-.83.74-1.05c.08-.09.55-.25.73-.39,1.59-1.17,1.2-3.78-.66-4.41-.64-.21-1.28,0-1.75-.57-.76-.94.24-2.3,1.42-1.76.76.35.47,1.11.82,1.5.29.32,1.03.24,1.14-.23.2-.86-.33-1.81-1.02-2.3-.17-.12-.6-.25-.68-.35-.18-.21-.03-1.09-.8-1.05Z"/>
</svg>