<svg width="84" height="83" viewBox="0 0 84 83" fill="none" xmlns="http://www.w3.org/2000/svg">
<path d="M2.57031 14.6562C2.57031 7.19625 8.61031 1.15625 16.0703 1.15625H70.0403C77.5003 1.15625 83.5403 7.19625 83.5403 14.6562V68.6363C83.5403 76.0963 77.4903 82.1363 70.0403 82.1363H16.0703C8.61031 82.1363 2.57031 76.0963 2.57031 68.6363V14.6562Z" fill="#233876"/>
<path d="M73.9104 29.1464V30.0245C73.1203 32.0734 72.9397 34.5726 72.1947 36.5989C71.6077 38.1975 70.2532 38.9855 68.6278 38.3551C68.1537 38.175 65.4447 36.3738 65.3092 36.5088C65.1964 37.7697 65.3318 39.3908 65.1286 40.6291C64.8803 42.1151 63.3 43.0833 61.8326 42.6555L56.3243 39.8861V43.1958C56.3243 43.3309 55.9179 44.119 55.7599 44.254C54.8343 45.1772 52.9606 44.7944 52.6445 43.511C52.4639 42.7906 52.4865 38.3326 52.5994 37.477C52.7574 36.3738 53.8184 35.3831 54.9246 35.293C56.2566 35.1805 58.9204 37.0492 60.2072 37.7247C60.433 37.8372 61.4714 38.4001 61.5843 38.2875C61.7649 36.5989 61.3134 33.4243 62.7131 32.2535C64.9706 30.3622 67.0701 33.3342 68.9438 34.3024C69.4405 32.6588 69.6888 30.8125 70.2532 29.1914C70.953 27.1876 73.2106 27.3002 73.933 29.1914L73.9104 29.1464Z" fill="#76A9FA"/>
<path d="M73.9109 14.1967C73.9335 14.4669 73.9335 14.9172 73.9109 15.1874C73.166 23.0451 60.9753 21.289 62.7362 13.4312C64.0907 7.32959 73.2563 7.89247 73.9109 14.1967Z" fill="#76A9FA"/>
<path d="M10.9716 72.8711C10.2717 72.5108 9.82023 72.083 10.0008 71.2274L14.2901 61.5234L25.5778 66.7695L11.6037 72.8711H10.9716Z" fill="#76A9FA"/>
<path d="M26.7962 26.8055C27.8798 26.6704 29.0989 27.0306 29.9568 27.7061L55.67 53.3733C58.537 57.4485 53.593 62.1767 49.6198 59.0471L24.2678 33.7626C22.0328 31.286 23.4551 27.2558 26.7962 26.828V26.8055Z" fill="#76A9FA"/>
<path d="M39.5742 60.4195L39.4162 60.6897L30.3184 64.5848L15.8477 57.8753L19.2565 50.4453L39.5742 60.4195Z" fill="#76A9FA"/>
<path d="M43.0739 57.9212L20.7695 46.8438L24.0881 39.1211L43.0739 57.9212Z" fill="#76A9FA"/>
<path d="M53.3459 14.5343L57.3869 16.7182C57.5449 16.8758 57.59 17.3937 57.5223 17.5963C57.4094 17.934 53.8877 19.6227 53.3233 19.9604L51.0884 24.0356C50.7949 24.3509 50.3208 24.3959 50.0273 24.0807L47.7472 19.9829L43.7063 17.799C43.3902 17.2361 43.5257 16.9434 43.9997 16.6057C44.9028 15.9527 47.1377 15.1872 47.7698 14.5118C48.4696 13.7913 49.1469 11.7199 49.8016 10.7968C50.0048 10.5041 50.3885 10.0988 50.7723 10.2789C51.4044 10.5716 52.7138 13.8588 53.3233 14.5343H53.3459Z" fill="#76A9FA"/>
<path d="M49.7783 28.56C51.5166 28.2223 52.8034 29.5732 52.0359 31.1943C51.7424 31.8022 51.3812 31.9373 50.7942 32.2074C49.8461 32.6352 45.6696 34.3239 44.8569 34.3239C43.0735 34.3239 42.3511 31.9373 43.8636 30.9016C44.2925 30.6089 49.214 28.6726 49.7558 28.56H49.7783Z" fill="#76A9FA"/>
<path d="M32.0333 11.4947C33.5007 11.2245 34.5166 12.3052 34.2908 13.7462C34.1779 14.4892 32.4396 19.2399 32.0559 19.8703C30.9722 21.559 28.3535 20.6133 28.7373 18.2943C28.8953 17.2811 30.2498 13.6787 30.7239 12.688C31.0174 12.0801 31.3334 11.6523 32.0559 11.5172L32.0333 11.4947Z" fill="#76A9FA"/>
<path d="M60.9964 27.4813C59.2807 29.1925 56.6168 26.6032 58.2874 24.847C59.9579 23.0909 62.7121 25.7702 60.9964 27.4813Z" fill="#76A9FA"/>
<path d="M60.2547 46.6424C62.5348 46.5523 62.8734 49.9971 60.7287 50.3348C57.8842 50.7851 57.7036 46.7549 60.2547 46.6424Z" fill="#76A9FA"/>
<path d="M40.9071 23.4491C43.1872 23.314 43.5259 26.8264 41.3586 27.1416C38.5367 27.5469 38.4013 23.5842 40.9071 23.4491Z" fill="#76A9FA"/>
</svg>
