<svg width="78" height="80" viewBox="0 0 78 80" fill="none" xmlns="http://www.w3.org/2000/svg">
<path d="M19.3262 6.41406L4.78271 21.2191L58.0436 74.6183L72.5871 59.8133L19.3262 6.41406ZM69.4131 56.8479L62.9349 63.4596L62.1523 62.6908L68.6305 56.0791L69.4131 56.8479ZM67.2827 54.7172L60.8044 61.3289L60.0218 60.5601L66.5001 53.9484L67.2827 54.7172ZM59.0001 46.4141L52.5218 53.0258L51.7392 52.257L58.2175 45.6453L59.0001 46.4141ZM56.8697 44.2834L50.3914 50.8951L49.6088 50.1263L56.0871 43.5146L56.8697 44.2834ZM48.5001 35.8924L42.0218 42.5041L41.2392 41.7353L47.7175 35.1236L48.5001 35.8924ZM46.3697 33.7617L39.8914 40.3734L39.1088 39.6046L45.5871 32.9929L46.3697 33.7617ZM37.8914 25.2608L31.4131 31.8726L30.6305 31.1038L37.1088 24.492L37.8914 25.2608ZM35.761 23.1302L29.2827 29.7419L28.5001 28.9731L34.9784 22.3613L35.761 23.1302ZM27.5001 14.849L21.0218 21.4607L20.2392 20.6919L26.7175 14.0802L27.5001 14.849ZM25.3697 12.6963L18.8914 19.3081L18.1088 18.5393L24.5871 11.9275L25.3697 12.6963ZM13.8479 14.2559L20.3262 7.64416L21.1088 8.41296L14.6305 15.0247L13.8479 14.2559ZM15.9784 16.3866L22.4566 9.77485L23.2392 10.5437L16.761 17.1554L15.9784 16.3866ZM17.1088 28.1823L28.8697 16.2109L29.6523 16.9797L17.8914 28.9511L17.1088 28.1823ZM24.2392 24.6897L30.7175 18.078L31.5001 18.8468L25.0218 25.4585L24.2392 24.6897ZM26.3697 26.8204L32.8479 20.2087L33.6305 20.9775L27.1523 27.5892L26.3697 26.8204ZM27.5001 38.5942L39.261 26.6227L40.0436 27.3915L28.2827 39.363L27.5001 38.5942ZM34.8479 35.3213L41.3262 28.7095L42.1088 29.4783L35.6305 36.0901L34.8479 35.3213ZM36.9784 37.452L43.4566 30.8402L44.2392 31.609L37.761 38.2208L36.9784 37.452ZM38.1088 49.2257L49.8697 37.2543L50.6523 38.0231L38.8914 49.9945L38.1088 49.2257ZM45.3479 45.8429L51.8262 39.2312L52.6088 40L46.1305 46.6118L45.3479 45.8429ZM47.4784 47.9736L53.9566 41.3619L54.7392 42.1307L48.261 48.7425L47.4784 47.9736ZM48.6088 59.7694L60.3697 47.7979L61.1523 48.5667L49.3914 60.5382L48.6088 59.7694ZM55.761 56.2548L62.2392 49.6431L63.0218 50.4119L56.5436 57.0236L55.761 56.2548ZM57.8914 58.4075L64.3697 51.7957L65.1523 52.5645L58.674 59.1763L57.8914 58.4075ZM59.0001 70.1812L70.761 58.2098L71.5436 58.9786L59.7827 70.95L59.0001 70.1812Z" fill="#76A9FA"/>
<path d="M55.7174 17.9453L65.1522 27.4785L65.0652 27.7202L22.6739 70.2463L13.4783 60.757L55.7174 17.9453Z" fill="#76A9FA"/>
<path d="M62.4132 12.5644C65.3045 12.1471 67.8479 14.2778 69.4784 16.4963C71.8697 19.7473 69.9784 23.3497 67.1958 25.5243L57.7827 16.1229C57.674 15.7275 59.174 14.3437 59.5218 14.0581C60.3479 13.3772 61.3262 12.7402 62.4132 12.5864V12.5644Z" fill="#76A9FA"/>
<path d="M20.3262 72.0051L10.6957 74.5312C9.47835 74.5312 9.0653 73.5867 9.34791 72.4664L11.8044 63.2188L20.3262 72.0051Z" fill="#76A9FA"/>
</svg>
