<svg width="36" height="59" viewBox="0 0 36 59" fill="none" xmlns="http://www.w3.org/2000/svg">
<path d="M18.8312 25.7594C15.7792 25.1441 13.0977 23.4892 11.3316 21.1308C11.0482 20.7575 10.8507 20.3353 10.7511 19.8899C10.6516 19.4446 10.6521 18.9854 10.7526 18.5402C11.6243 15.6618 16.5464 14.0584 21.3079 15.1177C23.5286 15.5655 25.5416 16.635 27.0671 18.1775C27.4678 18.6131 27.9586 18.9718 28.5114 19.2332C29.0642 19.4946 29.668 19.6535 30.2881 19.7006C30.9083 19.7478 31.5325 19.6824 32.1249 19.5081C32.7173 19.3338 33.2662 19.0541 33.74 18.6851C34.2137 18.316 34.6031 17.865 34.8856 17.3578C35.168 16.8507 35.3381 16.2975 35.386 15.73C35.4339 15.1625 35.3586 14.592 35.1645 14.0512C34.9704 13.5104 34.6614 13.01 34.2551 12.5789C31.443 9.65584 27.7016 7.61064 23.555 6.72986C23.3032 6.67229 23.0577 6.66654 22.806 6.62048V4.31771C22.806 3.17258 22.3086 2.07435 21.4233 1.26463C20.538 0.4549 19.3373 0 18.0853 0C16.8333 0 15.6326 0.4549 14.7473 1.26463C13.862 2.07435 13.3647 3.17258 13.3647 4.31771V6.68956C10.6522 7.16703 8.13154 8.3069 6.06991 9.98833C4.00827 11.6698 2.48248 13.8301 1.65429 16.2403C1.2145 17.7988 1.12384 19.4225 1.38777 21.0139C1.65169 22.6052 2.26475 24.1313 3.19008 25.5004C6.2351 29.8855 11.0539 32.99 16.5936 34.1358C19.6468 34.752 22.3286 36.4092 24.0931 38.7701C24.3769 39.1433 24.5749 39.5654 24.675 40.0108C24.7751 40.4561 24.7752 40.9154 24.6753 41.3607C23.7973 44.2392 18.8721 45.8368 14.1168 44.7832C11.8735 44.3355 9.84298 43.2492 8.3167 41.6802C7.50964 40.8123 6.36019 40.2713 5.11887 40.1752C3.87756 40.079 2.64502 40.4356 1.68992 41.1671C0.734812 41.8987 0.134567 42.9458 0.0200137 44.0804C-0.0945395 45.215 0.285886 46.345 1.07837 47.2242C3.90148 50.2042 7.68531 52.2884 11.8855 53.1768C12.3765 53.2862 12.8643 53.3409 13.3552 53.4215V54.6823C13.3552 55.8274 13.8526 56.9256 14.7379 57.7354C15.6232 58.5451 16.8239 59 18.0759 59C19.3279 59 20.5286 58.5451 21.4139 57.7354C22.2992 56.9256 22.7965 55.8274 22.7965 54.6823V53.0847C25.3632 52.5227 27.7255 51.3589 29.6508 49.7079C31.5762 48.0569 32.9982 45.9757 33.7767 43.6693C34.2155 42.1106 34.3054 40.4868 34.0409 38.8955C33.7765 37.3043 33.1632 35.7783 32.2378 34.4092C29.1941 30.019 24.3741 26.9092 18.8312 25.7594Z" fill="#76A9FA"/>
</svg>
