<svg xmlns="http://www.w3.org/2000/svg" width="32" height="32" viewBox="0 0 32 32">
<g transform="translate(1.280,4.824) scale(0.102338)">
<g transform="translate(-3.221179,221.723750) scale(0.100000,-0.100000)"
fill="#0E0E0E" stroke="none">
<path d="M1515 2213 c-353 -17 -693 -86 -812 -166 -56 -37 -93 -101 -93 -160
l0 -39 -42 9 c-24 4 -88 8 -143 8 -91 0 -106 -3 -159 -30 -169 -85 -248 -240
-232 -448 11 -133 73 -255 164 -322 111 -82 308 -109 442 -61 36 13 72 26 80
30 12 5 25 -13 55 -75 22 -45 61 -113 87 -150 l47 -69 -69 -20 c-133 -39 -237
-109 -266 -177 -19 -45 -18 -167 2 -209 37 -77 162 -152 344 -207 290 -88 740
-116 1200 -76 324 29 604 114 717 217 56 52 75 104 71 193 -3 68 -7 82 -33
114 -38 47 -138 104 -243 139 l-80 27 55 77 c104 145 172 316 217 545 42 210
59 526 32 591 -42 100 -251 178 -601 225 -242 33 -512 45 -740 34z m720 -222
c213 -29 371 -73 382 -107 5 -14 -77 -50 -159 -69 -443 -102 -1329 -77 -1568
45 -39 20 -41 23 -24 34 59 40 209 77 419 101 193 22 216 23 520 19 208 -2
318 -8 430 -23z m-1151 -381 c192 -32 428 -50 675 -50 333 0 599 28 797 84
l84 24 0 -32 c0 -63 -41 -263 -76 -371 -45 -140 -112 -269 -186 -360 -147
-183 -380 -286 -653 -288 -424 -4 -759 280 -855 722 -15 69 -50 301 -50 332 0
4 35 -4 77 -18 42 -13 127 -33 187 -43z m-542 1 c26 -16 52 -39 58 -50 6 -12
21 -78 34 -148 l24 -128 -26 -22 c-33 -27 -105 -53 -146 -53 -79 1 -182 88
-206 175 -22 77 17 171 93 226 54 39 107 39 169 0z m625 -1087 c153 -95 314
-134 558 -134 239 0 412 41 579 136 l81 45 65 -17 c86 -22 209 -79 216 -99 9
-22 -9 -38 -81 -73 -181 -90 -430 -125 -875 -125 -264 0 -323 3 -440 22 -279
44 -510 138 -468 189 25 29 203 93 282 101 5 1 42 -20 83 -45z"/>
<path d="M1720 1373 c-114 -315 -169 -457 -170 -433 -1 55 -13 70 -102 126
-50 32 -86 60 -81 65 5 5 47 35 93 66 l85 58 3 54 c5 91 -1 101 -56 101 -43 0
-60 -9 -205 -105 l-158 -106 3 -76 3 -77 160 -103 c120 -77 168 -103 193 -103
30 0 33 -2 25 -22 -4 -13 -8 -41 -8 -63 l0 -40 81 -3 80 -3 138 371 c95 257
136 380 134 403 l-3 32 -81 3 -81 3 -53 -148z"/>
<path d="M1937 1403 c-4 -3 -7 -36 -7 -73 0 -77 2 -79 118 -155 l72 -48 -82
-55 c-46 -30 -89 -61 -95 -70 -17 -20 -17 -134 -1 -150 7 -7 28 -12 47 -12 27
0 66 21 175 92 194 126 186 117 186 200 l0 68 -161 105 c-140 92 -165 105
-203 105 -23 0 -46 -3 -49 -7z"/>
</g>
</g>
</svg>